<svg width="24" height="24" viewBox="0 0 24 24" fill="none" xmlns="http://www.w3.org/2000/svg">
<g clip-path="url(#clip0_446_5654)">
<path d="M9 5H7C6.46957 5 5.96086 5.21071 5.58579 5.58579C5.21071 5.96086 5 6.46957 5 7V19C5 19.5304 5.21071 20.0391 5.58579 20.4142C5.96086 20.7893 6.46957 21 7 21H17C17.5304 21 18.0391 20.7893 18.4142 20.4142C18.7893 20.0391 19 19.5304 19 19V7C19 6.46957 18.7893 5.96086 18.4142 5.58579C18.0391 5.21071 17.5304 5 17 5H15" stroke="white" stroke-width="1.5" stroke-linecap="round" stroke-linejoin="round"/>
<path d="M9 5C9 4.46957 9.21071 3.96086 9.58579 3.58579C9.96086 3.21071 10.4696 3 11 3H13C13.5304 3 14.0391 3.21071 14.4142 3.58579C14.7893 3.96086 15 4.46957 15 5C15 5.53043 14.7893 6.03914 14.4142 6.41421C14.0391 6.78929 13.5304 7 13 7H11C10.4696 7 9.96086 6.78929 9.58579 6.41421C9.21071 6.03914 9 5.53043 9 5Z" stroke="white" stroke-width="1.5" stroke-linecap="round" stroke-linejoin="round"/>
<path d="M11.9931 16.7501L14.7401 13.9351C15.0798 13.5813 15.2696 13.1097 15.2696 12.6191C15.2696 12.1285 15.0798 11.657 14.7401 11.3031C14.5744 11.1307 14.3757 10.9935 14.1557 10.8998C13.9358 10.8061 13.6991 10.7578 13.4601 10.7578C13.221 10.7578 12.9844 10.8061 12.7644 10.8998C12.5444 10.9935 12.3457 11.1307 12.1801 11.3031L11.9971 11.4911L11.8141 11.3021C11.6484 11.1297 11.4497 10.9925 11.2297 10.8988C11.0098 10.8051 10.7731 10.7568 10.5341 10.7568C10.295 10.7568 10.0584 10.8051 9.8384 10.8988C9.61845 10.9925 9.41969 11.1297 9.25405 11.3021C8.91403 11.6558 8.72412 12.1275 8.72412 12.6181C8.72412 13.1088 8.91403 13.5804 9.25405 13.9341L11.9921 16.7591L11.9931 16.7501Z" stroke="white" stroke-width="1.5" stroke-linecap="round" stroke-linejoin="round"/>
</g>
<defs>
<clipPath id="clip0_446_5654">
<rect width="24" height="24" fill="white"/>
</clipPath>
</defs>
</svg>
